<svg xmlns="http://www.w3.org/2000/svg" xmlns:xlink="http://www.w3.org/1999/xlink" viewBox="0 0 323.04 121.48"><defs><style>.cls-1{fill:url(#Degradado_sin_nombre_15);}</style><linearGradient id="Degradado_sin_nombre_15" y1="60.74" x2="320.84" y2="60.74" gradientUnits="userSpaceOnUse"><stop offset="0" stop-color="#ff8e40"/><stop offset="1" stop-color="#ff5a6a"/></linearGradient></defs><g id="Capa_2" data-name="Capa 2"><g id="Capa_1-2" data-name="Capa 1"><path class="cls-1" d="M41.4,65.43H0V0H8.7V57.7H41.4Z"/><path class="cls-1" d="M90.13,65.43H81.87V60a40.33,40.33,0,0,1-8,5.05,20,20,0,0,1-8.44,1.76q-7.73,0-12-4.73t-4.3-13.86V16.35h8.26V44.3a50.45,50.45,0,0,0,.35,6.39,11.63,11.63,0,0,0,1.49,4.55,7.1,7.1,0,0,0,3.08,2.81,13.39,13.39,0,0,0,5.49.88,17.61,17.61,0,0,0,7-1.67A32.48,32.48,0,0,0,81.87,53V16.35h8.26Z"/><path class="cls-1" d="M178,65.43h-8.26V37.49a60.31,60.31,0,0,0-.29-6.11,13.06,13.06,0,0,0-1.2-4.71,6.71,6.71,0,0,0-2.9-2.85,12.19,12.19,0,0,0-5.45-1A15.4,15.4,0,0,0,153,24.59,43.13,43.13,0,0,0,146,29c.09.68.16,1.46.22,2.35s.09,1.78.09,2.66V65.43h-8.26V37.49q0-3.26-.29-6.18a12.72,12.72,0,0,0-1.21-4.68,6.5,6.5,0,0,0-2.9-2.83,12.48,12.48,0,0,0-5.45-.95,15.37,15.37,0,0,0-6.79,1.67,41.76,41.76,0,0,0-6.79,4.26V65.43h-8.26V16.35h8.26V21.8a36.14,36.14,0,0,1,7.72-5,19.06,19.06,0,0,1,8.19-1.8,16.19,16.19,0,0,1,8.5,2.1,13,13,0,0,1,5.21,5.85,41.24,41.24,0,0,1,9.14-6.09A21.3,21.3,0,0,1,162.25,15q8.08,0,11.93,4.9T178,33.57Z"/><path class="cls-1" d="M265.56,65.43H257.3V37.49q0-3.16-.29-6.11a13.06,13.06,0,0,0-1.2-4.71,6.71,6.71,0,0,0-2.9-2.85,12.19,12.19,0,0,0-5.45-1,15.4,15.4,0,0,0-7,1.74A43.13,43.13,0,0,0,233.57,29c.09.68.16,1.46.22,2.35s.09,1.78.09,2.66V65.43h-8.26V37.49q0-3.26-.29-6.18a12.72,12.72,0,0,0-1.21-4.68,6.5,6.5,0,0,0-2.9-2.83,12.51,12.51,0,0,0-5.45-.95A15.37,15.37,0,0,0,209,24.52a41.76,41.76,0,0,0-6.79,4.26V65.43h-8.26V16.35h8.26V21.8a36.33,36.33,0,0,1,7.71-5,19.14,19.14,0,0,1,8.2-1.8,16.19,16.19,0,0,1,8.5,2.1,13,13,0,0,1,5.21,5.85A41.24,41.24,0,0,1,241,16.85,21.3,21.3,0,0,1,249.79,15q8.09,0,11.93,4.9t3.84,13.68Z"/><path class="cls-1" d="M323,16.35,294.39,83.54h-8.83l9.14-20.48L275.14,16.35h9l15.07,36.38,15.2-36.38Z"/><path class="cls-1" d="M80.25,113.43h-5l-9.72-11.56H60.06v11.56H56.19V84.35h8.15a24.29,24.29,0,0,1,4.39.34,9.15,9.15,0,0,1,3.16,1.23,7.41,7.41,0,0,1,2.48,2.5,7.53,7.53,0,0,1,.88,3.84,8.54,8.54,0,0,1-1.58,5.27,9.6,9.6,0,0,1-4.35,3.19Zm-9-20.89a5.33,5.33,0,0,0-.44-2.22,3.82,3.82,0,0,0-1.45-1.63,5.34,5.34,0,0,0-2-.79,14.2,14.2,0,0,0-2.71-.23H60.06v11H64a14.39,14.39,0,0,0,3.21-.32,5.21,5.21,0,0,0,2.32-1.2,5.13,5.13,0,0,0,1.3-1.89A7.43,7.43,0,0,0,71.21,92.54Z"/><path class="cls-1" d="M101,102.91H84.92a9.12,9.12,0,0,0,.61,3.5,6.37,6.37,0,0,0,1.66,2.45,6.45,6.45,0,0,0,2.41,1.41,9.71,9.71,0,0,0,3.08.47,12.24,12.24,0,0,0,4.48-.89,10.87,10.87,0,0,0,3.21-1.75h.2v4a32,32,0,0,1-3.79,1.31,15.5,15.5,0,0,1-4.07.52q-5.43,0-8.47-2.94t-3-8.35a12,12,0,0,1,2.92-8.49A10,10,0,0,1,91.8,91a8.8,8.8,0,0,1,6.8,2.58q2.4,2.58,2.4,7.33Zm-3.58-2.82A6.52,6.52,0,0,0,96,95.62,5.64,5.64,0,0,0,91.6,94a6.39,6.39,0,0,0-4.7,1.74,6.8,6.8,0,0,0-2,4.31Z"/><path class="cls-1" d="M125.76,102.26a14.75,14.75,0,0,1-.76,4.86,10.64,10.64,0,0,1-2.15,3.72,8.91,8.91,0,0,1-3,2.23,8.78,8.78,0,0,1-3.7.79,11.69,11.69,0,0,1-3.07-.37,12.43,12.43,0,0,1-2.81-1.15v9.14h-3.67V91.62h3.67V93.9a14.57,14.57,0,0,1,3.3-2.06,9.3,9.3,0,0,1,3.89-.83,7.2,7.2,0,0,1,6.14,3C125,96,125.76,98.73,125.76,102.26Zm-3.79.1a10.53,10.53,0,0,0-1.34-5.9,4.7,4.7,0,0,0-4.15-1.95,8.16,8.16,0,0,0-3.18.68,14.76,14.76,0,0,0-3.07,1.8v12.36a14.85,14.85,0,0,0,2.69,1,11.6,11.6,0,0,0,2.55.25,5.87,5.87,0,0,0,4.78-2.07Q122,106.42,122,102.36Z"/><path class="cls-1" d="M150.08,102.54c0,3.55-.91,6.36-2.74,8.41a10.25,10.25,0,0,1-14.67,0c-1.82-2-2.73-4.86-2.73-8.41s.91-6.37,2.73-8.43a10.23,10.23,0,0,1,14.67,0Q150.08,97.2,150.08,102.54Zm-3.79,0q0-4.25-1.66-6.3a6.22,6.22,0,0,0-9.25,0q-1.65,2.06-1.65,6.3,0,4.09,1.66,6.22a6.1,6.1,0,0,0,9.23,0Q146.28,106.68,146.29,102.54Z"/><path class="cls-1" d="M171.35,107.15a6,6,0,0,1-2.47,4.9,10.81,10.81,0,0,1-6.75,1.91,16.24,16.24,0,0,1-4.44-.57,20.71,20.71,0,0,1-3.39-1.26V108h.19a14.41,14.41,0,0,0,3.87,2.08,11.85,11.85,0,0,0,4.08.78,7.67,7.67,0,0,0,3.79-.78,2.66,2.66,0,0,0,1.37-2.47,2.49,2.49,0,0,0-.74-2,6.75,6.75,0,0,0-2.86-1.13c-.52-.12-1.2-.26-2-.41s-1.6-.33-2.29-.51a7.57,7.57,0,0,1-4.07-2.24,5.5,5.5,0,0,1-1.21-3.62,6,6,0,0,1,.56-2.54,6.27,6.27,0,0,1,1.69-2.13,8.2,8.2,0,0,1,2.78-1.45,12.42,12.42,0,0,1,3.78-.54,17,17,0,0,1,4,.48,15.45,15.45,0,0,1,3.33,1.16v3.93h-.2a12.83,12.83,0,0,0-3.41-1.75,11.7,11.7,0,0,0-3.95-.71,6.86,6.86,0,0,0-3.4.77,2.48,2.48,0,0,0-1.39,2.29,2.45,2.45,0,0,0,.84,2,6.61,6.61,0,0,0,2.66,1.12c.68.15,1.44.31,2.28.47s1.54.3,2.1.43a7.76,7.76,0,0,1,3.94,2A5.27,5.27,0,0,1,171.35,107.15Z"/><path class="cls-1" d="M187.93,113.24a21,21,0,0,1-2.26.45,14.92,14.92,0,0,1-2.17.17,6.74,6.74,0,0,1-5.08-1.79q-1.74-1.8-1.74-5.76V94.7H174.2V91.62h2.48V85.35h3.67v6.27h7.58V94.7h-7.58v10c0,1.14,0,2,.08,2.68a4.25,4.25,0,0,0,.55,1.81,2.6,2.6,0,0,0,1.18,1.14,5.53,5.53,0,0,0,2.29.36,7.46,7.46,0,0,0,1.88-.26,12.9,12.9,0,0,0,1.4-.44h.2Z"/><path class="cls-1" d="M210.63,102.91H194.55a9.12,9.12,0,0,0,.61,3.5,6.37,6.37,0,0,0,1.66,2.45,6.45,6.45,0,0,0,2.41,1.41,9.64,9.64,0,0,0,3.07.47,12.25,12.25,0,0,0,4.49-.89A10.87,10.87,0,0,0,210,108.1h.2v4a32,32,0,0,1-3.79,1.31,15.5,15.5,0,0,1-4.07.52q-5.43,0-8.47-2.94t-3.05-8.35a12,12,0,0,1,2.92-8.49A10,10,0,0,1,201.43,91a8.8,8.8,0,0,1,6.8,2.58q2.4,2.58,2.4,7.33Zm-3.58-2.82a6.52,6.52,0,0,0-1.45-4.47A5.64,5.64,0,0,0,201.23,94a6.37,6.37,0,0,0-4.7,1.74,6.8,6.8,0,0,0-2,4.31Z"/><path class="cls-1" d="M229.8,95.62h-.19a14,14,0,0,0-1.59-.28,16.2,16.2,0,0,0-1.83-.09,7.56,7.56,0,0,0-3.28.75,15.09,15.09,0,0,0-3,2v15.48h-3.67V91.62h3.67v3.22a18.28,18.28,0,0,1,3.86-2.49,8.37,8.37,0,0,1,3.41-.73,11.85,11.85,0,0,1,1.39,0l1.28.18Z"/><path class="cls-1" d="M241,80.7,235.68,88h-2.91l3.5-7.3ZM237,113.43H233.3V91.62H237Z"/><path class="cls-1" d="M261.19,113.43h-3.65v-2.32q-.5.33-1.32.93a9.51,9.51,0,0,1-1.61.95,10.82,10.82,0,0,1-2.11.75,11.52,11.52,0,0,1-2.79.3,7,7,0,0,1-5-2,6.56,6.56,0,0,1-2.05-5,6.92,6.92,0,0,1,1.06-4,7.13,7.13,0,0,1,3-2.41,16.31,16.31,0,0,1,4.78-1.19c1.87-.21,3.86-.36,6-.47v-.57a4.41,4.41,0,0,0-.44-2.07,3.25,3.25,0,0,0-1.26-1.29,5.14,5.14,0,0,0-1.88-.6,15.21,15.21,0,0,0-2.28-.16,15.74,15.74,0,0,0-3.22.38,25.77,25.77,0,0,0-3.67,1.11h-.2V92.09c.72-.2,1.75-.41,3.11-.65a23.77,23.77,0,0,1,4-.35,18.83,18.83,0,0,1,4,.38,7.9,7.9,0,0,1,3,1.3,5.78,5.78,0,0,1,1.88,2.32,8.59,8.59,0,0,1,.64,3.54Zm-3.65-5.37V102c-1.12.06-2.44.16-4,.29a20.29,20.29,0,0,0-3.6.57,5.87,5.87,0,0,0-2.56,1.4,4,4,0,0,0,.16,5.42,5.26,5.26,0,0,0,3.46,1,8.25,8.25,0,0,0,3.53-.75A15.4,15.4,0,0,0,257.54,108.06Z"/></g></g></svg>